<svg viewBox="0 0 512 512" fill="none" xmlns="http://www.w3.org/2000/svg" class="products__icon">
  <path d="M361.942 309c-15.498 0-28.062-12.553-28.062-28.033V136.884c0-42.908-34.935-77.817-77.88-77.817-42.945 0-77.88 34.91-77.88 77.817v144.083c0 15.48-12.564 28.033-28.062 28.033C134.564 309 122 296.447 122 280.967V136.884C122 63.059 182.111 3 256 3c73.889 0 134 60.059 134 133.884v144.083c0 15.48-12.564 28.033-28.058 28.033z" fill="#6E7CA8"/>
  <path d="M334 174v106.889C334 296.412 346.537 309 362.002 309 377.463 309 390 296.412 390 280.889v-97.868A662.766 662.766 0 00334 174zM122 183.021v97.868C122 296.412 134.537 309 149.998 309 165.463 309 178 296.412 178 280.889V174a662.766 662.766 0 00-56 9.021z" fill="#54669E"/>
  <path d="M406.56 492.863a669.941 669.941 0 01-301.115 0C84.696 488.075 70 469.612 70 448.33V257.67c0-21.282 14.696-39.745 35.445-44.533a669.941 669.941 0 01301.115 0c20.744 4.788 35.44 23.251 35.44 44.533v190.66c.005 21.282-14.691 39.745-35.44 44.533z" fill="#89D47F"/>
  <path d="M229.7 197a669.52 669.52 0 00-124.287 16.589C84.683 218.37 70 236.805 70 258.056v190.376c0 21.25 14.683 39.686 35.413 44.462A669.655 669.655 0 00295 508.853C227.436 428.627 213.827 274.215 229.7 197z" fill="#5EC783"/>
  <path d="M200.29 461.997h-43.165a13.088 13.088 0 01-12.124-8.103 13.083 13.083 0 012.844-14.299l38.485-38.486a16.21 16.21 0 004.781-11.402c.072-8.615-6.851-15.991-15.423-16.441-4.546-.234-8.854 1.344-12.133 4.456-3.285 3.112-5.097 7.319-5.097 11.847a9.178 9.178 0 01-9.179 9.179c-5.067 0-9.179-4.112-9.179-9.179 0-9.476 3.944-18.645 10.819-25.166 6.971-6.617 16.097-9.973 25.735-9.471 18.243.966 32.963 16.632 32.815 34.924-.076 9.155-3.686 17.76-10.159 24.238l-29.545 29.545h30.525a9.178 9.178 0 019.179 9.179c0 5.068-4.111 9.179-9.179 9.179zM255.403 461.997h-.273c-9.155-.076-17.765-3.686-24.238-10.164-3.586-3.58-3.586-9.394 0-12.979a9.18 9.18 0 0112.98.004 16.251 16.251 0 0011.407 4.781h.129c8.557 0 15.862-6.894 16.312-15.427.239-4.547-1.344-8.85-4.456-12.134-3.117-3.284-7.324-5.091-11.847-5.091h-12.874c-10.121 0-18.349-8.233-18.349-18.349v-19.405c0-10.121 8.228-18.349 18.349-18.349h38.38a9.179 9.179 0 110 18.358h-38.38l.009 19.396 12.865-.01c9.476 0 18.645 3.945 25.166 10.819 6.612 6.971 9.978 16.111 9.466 25.735-.956 18.148-16.47 32.815-34.646 32.815zM337.216 392.628c-3.978 0-7.797.679-11.354 1.917a39.111 39.111 0 016.148-8.213c7.295-7.472 17.062-11.655 27.504-11.775a9.172 9.172 0 009.069-9.284 9.178 9.178 0 00-9.175-9.074h-.11c-15.341.182-29.698 6.325-40.421 17.302-10.723 10.981-16.527 25.476-16.345 40.713v13.099c0 19.123 15.556 34.684 34.684 34.684 19.123 0 34.685-15.561 34.685-34.684-.005-19.128-15.562-34.685-34.685-34.685zm0 51.011c-9.002 0-16.326-7.324-16.326-16.326s7.324-16.326 16.326-16.326 16.322 7.324 16.322 16.326-7.32 16.326-16.322 16.326zM199.258 302.855c0-14.596-14.859-26.423-33.184-26.423-18.324 0-33.178 11.827-33.178 26.423 0 14.591 14.854 26.423 33.178 26.423 18.325 0 33.184-11.832 33.184-26.423zM379.105 302.855c0-14.596-14.854-26.423-33.178-26.423-18.325 0-33.184 11.827-33.184 26.423 0 14.591 14.859 26.423 33.184 26.423 18.324 0 33.178-11.832 33.178-26.423z" fill="#fff"/>
  <path d="M185.5 286c-5.245 0-9.5-4.096-9.5-9.156v-11.688c0-5.055 4.255-9.156 9.5-9.156 5.25 0 9.5 4.101 9.5 9.156v11.688c0 5.06-4.25 9.156-9.5 9.156zM326.5 286c-5.25 0-9.5-4.096-9.5-9.156v-11.688c0-5.055 4.25-9.156 9.5-9.156 5.245 0 9.5 4.101 9.5 9.156v11.688c0 5.06-4.255 9.156-9.5 9.156zM256 287.664a27.658 27.658 0 01-20.859-9.5 7.496 7.496 0 01.726-10.578 7.497 7.497 0 0110.582.726 12.673 12.673 0 009.551 4.352c3.66 0 7.141-1.586 9.555-4.352a7.492 7.492 0 0110.578-.726 7.496 7.496 0 01.73 10.578 27.666 27.666 0 01-20.863 9.5z" fill="#4E5660"/>
</svg>
