<svg viewBox="0 0 512 533" fill="none" xmlns="http://www.w3.org/2000/svg">
<g clip-path="url(#clip0_101_2)">
<path d="M454.491 405.208L454.481 405.448L466.491 532.448H378.851L367.491 454.448L362.491 530.448L272.491 529.448L282.051 429.668L290.181 383.418V383.408L291.401 376.448H452.101L452.311 378.968L454.491 405.208Z" fill="#2F2E41"/>
<path d="M222.883 478.831C232.165 480.522 241.843 470.069 244.5 455.483C245.664 449.098 245.288 442.98 243.72 437.977L245.143 429.569L269.027 316.46C269.027 316.46 313.007 228.484 313.006 213.211C313.005 197.938 300.284 190.448 300.284 190.448L283.069 190.609L229.087 322.456L219.365 419.886L217.792 433.253C214.56 437.382 212.051 442.974 210.888 449.359C208.231 463.945 213.601 477.14 222.883 478.831V478.831Z" fill="#FFB6B6"/>
<path d="M397.991 135.948L381.991 98.9484L329.991 107.948L326.491 151.48L397.991 135.948Z" fill="#FFB6B6"/>
<path opacity="0.1" d="M397.991 135.948L381.991 98.9484L329.991 107.948L326.491 151.48L397.991 135.948Z" fill="black"/>
<path d="M510.991 212.948C510.991 212.948 473.991 143.948 466.991 136.948C463.875 133.832 458.977 133.789 454.498 134.697L402.991 116.948L385.533 107.139L384.383 125.801L327.067 136.089C327.386 124.708 328.991 120.379 328.991 120.379L307.991 144.948L266.991 164.948L267.014 165.128C264.005 166.179 261.152 167.976 258.991 170.948C250.991 181.948 228.991 315.948 228.991 315.948L275.991 325.948L282.388 285.809L286.991 321.948L290.491 389.448C290.491 389.448 354.491 444.448 385.491 424.448C416.491 404.448 454.491 405.448 454.491 405.448L455.439 374.16C456.114 373.082 456.491 372.448 456.491 372.448L455.491 261.464V231.932C463.109 242.546 472.303 251.673 482.991 255.948C517.991 269.948 510.991 212.948 510.991 212.948V212.948Z" fill="#E6E6E6"/>
<path d="M350.556 114.458C376.976 114.458 398.394 93.0404 398.394 66.6199C398.394 40.1995 376.976 18.7814 350.556 18.7814C324.135 18.7814 302.717 40.1995 302.717 66.6199C302.717 93.0404 324.135 114.458 350.556 114.458Z" fill="#FFB6B6"/>
<path d="M384.875 80.1395C384.875 80.1395 389.035 65.5799 398.394 66.6199C407.754 67.6599 409.834 59.3401 407.754 55.1803C405.674 51.0204 401.514 30.2211 401.514 30.2211C401.514 30.2211 403.594 15.6615 391.115 13.5816C378.635 11.5017 374.475 9.42172 372.395 5.26185C370.315 1.10198 339.116 -3.05789 328.717 3.18192C318.317 9.42172 309.997 21.3936 302.717 24.7674C295.438 28.1411 289.198 34.3809 293.358 44.7806C297.518 55.1803 303.551 75.5198 303.551 75.5198C303.551 75.5198 314.157 71.8197 316.237 78.0595C318.317 84.2993 309.997 75.9796 320.397 59.3401C330.796 42.7007 330.796 26.0612 347.436 32.301C364.075 38.5408 382.795 36.4609 380.715 48.9405C378.635 61.4201 384.875 80.1395 384.875 80.1395V80.1395Z" fill="#2F2E41"/>
<path d="M381.949 459.384H18.6332C8.35866 459.384 0 451.025 0 440.751V247.758C0 237.484 8.35866 229.125 18.6332 229.125H381.949C392.224 229.125 400.583 237.484 400.583 247.758V440.751C400.583 451.025 392.224 459.384 381.949 459.384V459.384Z" fill="white"/>
<path d="M381.949 459.384H18.6332C8.35866 459.384 0 451.025 0 440.751V247.758C0 237.484 8.35866 229.125 18.6332 229.125H381.949C392.224 229.125 400.583 237.484 400.583 247.758V440.751C400.583 451.025 392.224 459.384 381.949 459.384V459.384ZM18.6332 232.236C10.0748 232.236 3.11161 239.2 3.11161 247.758V440.751C3.11161 449.309 10.0748 456.273 18.6332 456.273H381.949C390.508 456.273 397.471 449.309 397.471 440.751V247.758C397.471 239.2 390.508 232.236 381.949 232.236H18.6332Z" fill="#3F3D56"/>
<path d="M353.908 252.462C356.486 252.462 358.576 250.372 358.576 247.794C358.576 245.217 356.486 243.127 353.908 243.127C351.331 243.127 349.241 245.217 349.241 247.794C349.241 250.372 351.331 252.462 353.908 252.462Z" fill="#3F3D56"/>
<path d="M366.355 252.462C368.933 252.462 371.022 250.372 371.022 247.794C371.022 245.217 368.933 243.127 366.355 243.127C363.777 243.127 361.688 245.217 361.688 247.794C361.688 250.372 363.777 252.462 366.355 252.462Z" fill="#3F3D56"/>
<path d="M378.801 252.462C381.379 252.462 383.469 250.372 383.469 247.794C383.469 245.217 381.379 243.127 378.801 243.127C376.224 243.127 374.134 245.217 374.134 247.794C374.134 250.372 376.224 252.462 378.801 252.462Z" fill="#3F3D56"/>
<path d="M26.4487 323.251C25.1619 323.251 24.115 324.298 24.115 325.585C24.115 326.212 24.3574 326.793 24.7972 327.221C25.2409 327.675 25.822 327.919 26.4487 327.919H375.69C376.977 327.919 378.023 326.872 378.023 325.585C378.023 324.957 377.781 324.377 377.341 323.948C376.898 323.494 376.316 323.251 375.69 323.251H26.4487Z" fill="#E6E6E6"/>
<path d="M332.127 322.473V328.696H26.4487C25.593 328.696 24.8151 328.354 24.2551 327.778C23.6793 327.218 23.3371 326.44 23.3371 325.585C23.3371 323.873 24.7374 322.473 26.4487 322.473H332.127Z" fill="#63FF70"/>
<path d="M371.8 310.805H340.684C337.253 310.805 334.461 308.014 334.461 304.581C334.461 301.149 337.253 298.358 340.684 298.358H371.8C375.232 298.358 378.023 301.149 378.023 304.581C378.023 308.014 375.232 310.805 371.8 310.805Z" fill="#E6E6E6"/>
<path d="M167.99 278.133H28.7824C25.351 278.133 22.5592 275.342 22.5592 271.909C22.5592 268.477 25.351 265.686 28.7824 265.686H167.99C171.421 265.686 174.213 268.477 174.213 271.909C174.213 275.342 171.421 278.133 167.99 278.133Z" fill="#E6E6E6"/>
<path d="M26.4487 393.262C25.1619 393.262 24.115 394.309 24.115 395.596C24.115 396.224 24.3574 396.804 24.7972 397.232C25.2409 397.687 25.822 397.93 26.4487 397.93H375.69C376.977 397.93 378.023 396.883 378.023 395.596C378.023 394.969 377.781 394.388 377.341 393.96C376.898 393.506 376.316 393.262 375.69 393.262H26.4487Z" fill="#E6E6E6"/>
<path d="M212.33 392.484V398.708H26.4487C25.593 398.708 24.8151 398.365 24.2551 397.79C23.6793 397.23 23.3371 396.452 23.3371 395.596C23.3371 393.885 24.7374 392.484 26.4487 392.484H212.33Z" fill="#63FF70"/>
<path d="M371.8 380.816H340.684C337.253 380.816 334.461 378.025 334.461 374.593C334.461 371.161 337.253 368.37 340.684 368.37H371.8C375.232 368.37 378.023 371.161 378.023 374.593C378.023 378.025 375.232 380.816 371.8 380.816Z" fill="#E6E6E6"/>
<path d="M493.538 196.172L444.991 172.948C444.991 172.948 443.041 157.405 433.937 151.861C432.389 148.168 430.608 144.111 428.991 140.897C424.991 132.948 430.991 117.948 425.991 117.948C420.991 117.948 413.6 133.724 413.991 137.948C414.291 141.191 416.972 146.853 417.525 151.809C411.428 154.109 406.51 158.05 403.276 161.188C400.477 163.904 399.437 167.956 400.531 171.699C403.7 182.546 411.622 204.948 422.991 204.948C437.991 204.948 441.991 201.948 441.991 201.948C441.991 201.948 472.991 240.948 495.991 243.948C518.991 246.948 493.538 196.172 493.538 196.172V196.172Z" fill="#FFB6B6"/>
</g>
<defs>
<clipPath id="clip0_101_2">
<rect width="511.563" height="532.448" fill="white"/>
</clipPath>
</defs>
</svg>
